# xmcd
#
# Track frame offsets: 
#        150
#        15074
#        27908
#        44084
#
# Disc length: 808 seconds
#
# Revision: 0
# Processed by: cddbd v1.5.2PL0 Copyright (c) Steve Scherf et al.
# Submitted via: ExactAudioCopy v0.95b4
#
DISCID=24032604
DTITLE=Vic Godard and The Bitter Springs - Blackpool CD-EP (Gnu Inc Reco
DTITLE=rds 2010)
DYEAR=2010
DGENRE=Punk
TTITLE0=01 Blackpool
TTITLE1=02 Hand Jobs
TTITLE2=03 The Sewer Song (featuring Jock Scot)
TTITLE3=04 The Working Class Song (featuring Simon Rivers) 
EXTD=
EXTT0=
EXTT1=
EXTT2=
EXTT3=
PLAYORDER=
